{"title":"The Trip(1967)MP-4[DaScubaDude]","uid":12964465,"size":798495463,"categoryP":"video","categoryS":"movies","magnet":"?xt=urn:btih:a2d29b681ea6cc37685341f675b48261faf387e5&amp;dn=The+Trip%281967%29MP-4%5BDaScubaDude%5D&amp;tr=udp%3A%2F%2Ftracker.leechers-paradise.org%3A6969&amp;tr=udp%3A%2F%2Fzer0day.ch%3A1337&amp;tr=udp%3A%2F%2Fopen.demonii.com%3A1337&amp;tr=udp%3A%2F%2Ftracker.coppersurfer.tk%3A6969&amp;tr=udp%3A%2F%2Fexodus.desync.com%3A6969","seeders":1,"leechers":0,"uploader":"dascuba","files":1,"time":1449879088,"description":"The Trip\r\nNot Rated | 1h 25min | Drama | 23 August 1967 (USA) | (II)\r\n The Trip Poster\r\nPaul Groves (Peter Fonda), a television commercial director, is in the midst of a personality crisis. His wife Sally (Susan Strasberg) has left him and he seeks the help of his friend John ... See full summary »\r\nDirector: Roger Corman\r\nWriter: Jack Nicholson\r\nStars: Peter Fonda, Susan Strasberg, Bruce Dern \r\n\r\nGeneral\r\nComplete name                            :The TripTHE_TRIP_Title1.mp4\r\nFormat                                   : MPEG-4\r\nFormat profile                           : Base Media\r\nCodec ID                                 : isom\r\nFile size                                : 762 MiB\r\nDuration                                 : 1h 19mn\r\nOverall bit rate mode                    : Variable\r\nOverall bit rate                         : 1 341 Kbps\r\nMovie name                               : THE_TRIP\r\nGenre                                    : Drama\r\nWriting application                      : Lavf54.6.100\r\n\r\nVideo\r\nID                                       : 1\r\nFormat                                   : AVC\r\nFormat/Info                              : Advanced Video Codec\r\nFormat profile                           :   \r\nFormat settings, CABAC                   : No\r\nFormat settings, ReFrames                : 6 frames\r\nCodec ID                                 : avc1\r\nCodec ID/Info                            : Advanced Video Coding\r\nDuration                                 : 1h 19mn\r\nBit rate                                 : 1 199 Kbps\r\nWidth                                    : 720 pixels\r\nHeight                                   : 404 pixels\r\nDisplay aspect ratio                     : 16:9\r\nFrame rate mode                          : Constant\r\nFrame rate                               : 29.970 fps\r\nColor space                              : YUV\r\nChroma subsampling                       : 4:2:0\r\nBit depth                                : 8 bits\r\nScan type                                : Progressive\r\nBits/(Pixel*Frame)                       : 0.137\r\nStream size                              : 680 MiB (89%)\r\n\r\nAudio\r\nID                                       : 2\r\nFormat                                   : AAC\r\nFormat/Info                              : Advanced Audio Codec\r\nFormat profile                           : LC\r\nCodec ID                                 : 40\r\nDuration                                 : 1h 19mn\r\nBit rate mode                            : Variable\r\nBit rate                                 : 136 Kbps\r\nMaximum bit rate                         : 154 Kbps\r\nChannel(s)                               : 2 channels\r\nChannel positions                        : Front: L R\r\nSampling rate                            : 44.1 KHz\r\nCompression mode                         : Lossy\r\nStream size                              : 77.3 MiB (10%)","torrent":{"xt":"urn:btih:a2d29b681ea6cc37685341f675b48261faf387e5","amp;dn":"The+Trip%281967%29MP-4%5BDaScubaDude%5D","amp;tr":["udp%3A%2F%2Ftracker.leechers-paradise.org%3A6969","udp%3A%2F%2Fzer0day.ch%3A1337","udp%3A%2F%2Fopen.demonii.com%3A1337","udp%3A%2F%2Ftracker.coppersurfer.tk%3A6969","udp%3A%2F%2Fexodus.desync.com%3A6969"],"infoHash":"a2d29b681ea6cc37685341f675b48261faf387e5","infoHashBuffer":{"type":"Buffer","data":[162,210,155,104,30,166,204,55,104,83,65,246,117,180,130,97,250,243,135,229]},"announce":[],"urlList":[]}}